<?xml version="1.0" standalone="no"?>
<!DOCTYPE svg PUBLIC "-//W3C//DTD SVG 20010904//EN"
 "http://www.w3.org/TR/2001/REC-SVG-20010904/DTD/svg10.dtd">
<svg version="1.0" xmlns="http://www.w3.org/2000/svg"
 width="500.000000pt" height="500.000000pt" viewBox="0 0 500.000000 500.000000"
 preserveAspectRatio="xMidYMid meet">
<metadata>
Created by potrace 1.14, written by Peter Selinger 2001-2017
</metadata>
<g transform="translate(0.000000,500.000000) scale(0.100000,-0.100000)"
fill="#000000" stroke="none">
<path d="M1323 3226 l2 -489 405 -2 c223 0 410 1 415 2 6 2 9 47 8 116 -1 61
-3 121 -3 132 0 20 -7 20 -302 20 l-303 0 -3 243 -2 242 450 0 450 0 1 23 c3
68 0 190 -6 195 -4 4 -256 7 -560 8 l-554 0 2 -490z"/>
<path d="M2599 2834 c0 -486 0 -911 0 -944 0 -33 0 -214 0 -401 l1 -341 258 5
c273 5 315 11 462 69 72 29 81 33 180 99 84 56 143 112 210 199 19 25 37 47
41 50 15 13 89 162 108 220 41 125 48 152 57 235 8 75 7 801 -1 865 -13 105
-106 355 -137 368 -5 2 -8 8 -8 14 0 24 -139 182 -210 239 -120 96 -227 146
-390 184 -58 13 -130 18 -322 20 l-248 3 -1 -884z m543 641 c145 -34 230 -79
335 -179 89 -84 139 -155 177 -249 54 -139 56 -156 53 -627 l-2 -435 -37 -103
c-54 -153 -127 -257 -248 -353 -136 -109 -280 -156 -482 -158 l-128 -2 0 461
c0 253 3 460 8 461 4 0 33 1 65 2 l57 2 1 -40 c0 -22 1 -123 2 -225 l2 -185
62 -2 61 -2 0 197 c0 108 1 211 1 227 l1 30 156 0 155 0 -2 -105 c-3 -113 -13
-160 -52 -236 -53 -103 -139 -177 -252 -215 -51 -17 -48 -16 -94 -18 l-39 -1
0 -105 0 -105 66 5 c124 9 257 56 326 116 55 47 75 67 103 104 74 96 129 229
140 339 9 80 8 731 0 776 -12 64 -15 75 -32 120 -27 69 -121 205 -168 244
-105 86 -245 139 -380 145 l-57 2 1 -105 c1 -92 3 -106 17 -106 114 -4 207
-36 271 -94 64 -57 77 -74 104 -131 35 -72 47 -141 47 -265 l0 -110 -155 0
c-117 0 -155 3 -155 13 0 6 -1 109 -3 227 l-2 215 -47 -1 c-82 -3 -79 2 -78
-136 1 -68 1 -167 1 -220 l-1 -98 -65 0 -65 0 0 470 0 471 139 -2 c76 0 163
-7 193 -14z"/>
<path d="M1682 3351 c-5 -3 -8 -50 -8 -103 1 -98 1 -98 26 -99 145 -3 733 1
737 5 10 10 8 188 -2 194 -12 8 -742 10 -753 3z"/>
<path d="M2290 2870 l0 -135 70 1 c39 1 73 4 76 7 8 7 10 224 3 244 -4 13 -20
17 -77 17 l-72 1 0 -135z"/>
<path d="M1222 2423 l3 -128 45 0 45 0 3 -573 2 -572 562 2 561 3 0 85 c-1 47
-2 95 -2 106 l-1 22 -392 0 c-216 1 -419 1 -450 1 l-58 1 0 235 0 235 153 0
c312 1 457 5 457 13 0 4 0 76 0 160 l0 153 -237 -1 -238 0 -1 -45 c-1 -25 -2
-50 -3 -55 -1 -6 -27 -11 -63 -10 l-63 0 -3 114 c-1 64 1 117 7 120 5 3 208 6
450 5 311 0 441 2 442 10 1 16 1 219 0 234 -1 9 -130 12 -611 12 l-611 0 3
-127z"/>
<path d="M2289 2058 c-1 -59 -1 -119 -1 -133 0 -14 0 -38 1 -55 l1 -30 75 0
c64 0 75 2 76 18 4 85 0 294 -5 300 -4 4 -39 7 -77 7 l-69 1 -1 -108z"/>
<path d="M1679 1703 c-1 -5 -2 -50 -3 -100 l-1 -93 382 0 383 0 1 43 c1 43 1
122 0 145 -1 9 -84 12 -381 12 -209 0 -381 -3 -381 -7z"/>
</g>
</svg>
