<?xml version="1.0" standalone="no"?>
<!DOCTYPE svg PUBLIC "-//W3C//DTD SVG 20010904//EN"
 "http://www.w3.org/TR/2001/REC-SVG-20010904/DTD/svg10.dtd">
<svg version="1.0" xmlns="http://www.w3.org/2000/svg"
 width="30px" height="30px" viewBox="0 0 500.000000 500.000000"
 preserveAspectRatio="xMidYMid meet">

<g transform="translate(0.000000,500.000000) scale(0.100000,-0.100000)"
fill="#000000" stroke="none">
<path d="M2190 4985 c-314 -39 -711 -175 -978 -337 -147 -88 -392 -280 -499
-390 -74 -76 -222 -261 -302 -378 -201 -293 -363 -750 -402 -1135 -13 -132 -7
-468 12 -600 25 -184 123 -513 210 -707 208 -464 628 -905 1101 -1158 105 -56
153 -75 375 -150 273 -93 493 -129 779 -130 371 0 628 51 1006 201 476 188
959 631 1221 1119 95 176 205 498 246 716 62 332 55 707 -19 1020 -41 171
-137 439 -212 591 -168 340 -487 697 -840 940 -281 193 -757 365 -1120 403
-131 14 -449 11 -578 -5z m710 -400 c74 -15 182 -43 240 -62 118 -39 352 -137
390 -163 14 -10 50 -32 80 -50 222 -131 498 -400 668 -650 128 -190 253 -492
301 -727 56 -276 55 -604 -4 -883 -47 -224 -169 -518 -291 -700 -124 -186
-320 -399 -484 -527 -143 -111 -356 -234 -499 -288 -20 -7 -66 -24 -104 -38
-104 -40 -205 -66 -355 -93 -117 -20 -169 -24 -355 -24 -120 0 -237 4 -260 9
-23 6 -82 17 -132 27 -109 20 -229 54 -338 96 -79 30 -270 119 -332 155 -242
141 -528 413 -692 658 -74 111 -113 175 -113 184 0 4 -22 55 -49 112 -127 270
-191 560 -191 871 0 234 32 452 95 645 27 80 29 85 64 165 12 26 21 50 21 53
0 2 13 33 30 67 16 34 30 65 30 70 0 13 148 237 203 308 114 146 349 367 497
467 219 148 513 267 780 317 74 14 144 27 155 30 11 3 130 3 265 1 218 -3 260
-6 380 -30z"/>
<path d="M1615 3471 c-22 -10 -48 -27 -57 -37 -42 -48 -61 -148 -39 -208 6
-13 168 -182 362 -375 l352 -351 -352 -350 c-193 -193 -356 -362 -361 -376
-24 -63 0 -174 46 -216 48 -42 148 -61 208 -39 13 6 182 168 375 362 l351 353
350 -353 c193 -193 362 -356 376 -361 59 -23 160 -4 208 38 46 41 70 153 46
216 -5 14 -168 183 -361 376 l-353 350 353 351 c194 193 356 362 362 375 24
64 -1 175 -49 217 -45 40 -149 59 -206 37 -14 -5 -183 -168 -376 -361 l-350
-352 -351 352 c-247 248 -361 356 -383 362 -49 14 -107 10 -151 -10z"/>
</g>
</svg>
