<?xml version="1.0" standalone="no"?>
<!DOCTYPE svg PUBLIC "-//W3C//DTD SVG 20010904//EN"
 "http://www.w3.org/TR/2001/REC-SVG-20010904/DTD/svg10.dtd">
<svg version="1.0" xmlns="http://www.w3.org/2000/svg"
 width="30px" height="30px" viewBox="0 0 500.000000 500.000000"
 preserveAspectRatio="xMidYMid meet">

<g transform="translate(0.000000,500.000000) scale(0.100000,-0.100000)"
fill="#000000" stroke="none">
<path d="M2380 4844 c-629 -54 -1136 -287 -1557 -715 -339 -345 -556 -771
-644 -1264 -27 -151 -37 -481 -20 -647 83 -806 579 -1520 1306 -1881 211 -105
453 -182 700 -224 157 -26 563 -26 720 0 523 88 957 308 1320 672 357 356 581
788 665 1280 151 882 -202 1768 -916 2306 -325 244 -697 396 -1111 455 -104
14 -381 25 -463 18z m326 -365 c257 -25 483 -87 699 -193 660 -324 1082 -949
1135 -1682 41 -583 -171 -1148 -589 -1565 -330 -329 -725 -521 -1191 -579 -46
-5 -154 -10 -240 -10 -772 0 -1459 428 -1809 1127 -137 274 -202 561 -202 888
-1 188 9 283 47 454 169 760 793 1372 1554 1525 218 44 399 55 596 35z"/>
<path d="M1717 3245 c-142 -50 -160 -249 -29 -323 l40 -22 798 0 799 0 40 23
c54 30 85 87 85 155 0 29 -7 66 -15 81 -20 39 -69 78 -113 91 -24 6 -305 10
-802 10 -622 -1 -772 -3 -803 -15z"/>
<path d="M1717 2635 c-77 -27 -117 -84 -117 -166 0 -71 35 -130 93 -158 43
-21 52 -21 832 -21 780 0 789 0 832 21 80 39 120 159 78 238 -20 39 -69 78
-113 91 -24 6 -305 10 -802 10 -622 -1 -772 -3 -803 -15z"/>
<path d="M1733 2040 c-150 -35 -182 -247 -50 -325 l44 -25 799 0 799 0 40 23
c60 34 87 87 82 164 -4 89 -50 144 -133 163 -47 11 -1535 11 -1581 0z"/>
</g>
</svg>
